<svg xmlns="http://www.w3.org/2000/svg" viewBox="0 0 460.09 460.09"><defs><style>.cls-1{fill:#ee0405;}</style></defs><g id="Слой_2" data-name="Слой 2"><g id="Слой_1-2" data-name="Слой 1"><path class="cls-1" d="M303,460.09H157.09A53.6,53.6,0,0,1,119,444.3L15.79,341.13A53.6,53.6,0,0,1,0,303V157.09A53.6,53.6,0,0,1,15.79,119L119,15.79A53.6,53.6,0,0,1,157.09,0H303a53.6,53.6,0,0,1,38.13,15.79L444.3,119a53.56,53.56,0,0,1,15.79,38.12V303a53.6,53.6,0,0,1-15.79,38.13L341.13,444.3A53.6,53.6,0,0,1,303,460.09ZM157.09,28.31A25.45,25.45,0,0,0,139,35.82L35.82,139a25.41,25.41,0,0,0-7.51,18.1V303a25.45,25.45,0,0,0,7.51,18.11L139,424.28a25.4,25.4,0,0,0,18.1,7.5H303a25.44,25.44,0,0,0,18.11-7.5L424.28,321.11a25.44,25.44,0,0,0,7.5-18.11V157.09a25.4,25.4,0,0,0-7.5-18.1L321.11,35.81A25.48,25.48,0,0,0,303,28.31Z"/><path class="cls-1" d="M135.55,302.56H116.4a1.8,1.8,0,0,1-1.8-1.8V186.09a1.8,1.8,0,0,0-2.65-1.58L97.61,192.3A1.8,1.8,0,0,1,95,190.72V170.93a1.82,1.82,0,0,1,.89-1.55l19.73-11.59a1.77,1.77,0,0,1,.92-.25h19.06a1.79,1.79,0,0,1,1.79,1.8V300.76A1.8,1.8,0,0,1,135.55,302.56Z"/><path class="cls-1" d="M188.56,299.06A36.83,36.83,0,0,1,172.9,285a40.05,40.05,0,0,1-5.54-21.19v-2.4A39.61,39.61,0,0,1,173,240.92a37.39,37.39,0,0,1,12.4-13,1.78,1.78,0,0,0,0-3,32.65,32.65,0,0,1-10.22-10.55,31.3,31.3,0,0,1-4.84-16.66v-3.59a38.07,38.07,0,0,1,5.19-20,35,35,0,0,1,14.61-13.36,52.94,52.94,0,0,1,43.79,0,35,35,0,0,1,14.61,13.36,38.15,38.15,0,0,1,5.18,20v3.59a31,31,0,0,1-4.93,16.81A32.66,32.66,0,0,1,238.43,225a1.78,1.78,0,0,0,0,3,40.11,40.11,0,0,1,18.31,33.38v2.4A40.05,40.05,0,0,1,251.19,285a36.83,36.83,0,0,1-15.66,14.11q-10.12,5-23.49,5T188.56,299.06Zm35.05-19.44a18.73,18.73,0,0,0,7.73-7.33,21.22,21.22,0,0,0,2.75-10.83v-1.39a20.44,20.44,0,0,0-2.75-10.68,18.72,18.72,0,0,0-7.73-7.13,27.62,27.62,0,0,0-23.14,0,18.51,18.51,0,0,0-7.72,7.19A20.63,20.63,0,0,0,190,260.17v1.49a20.89,20.89,0,0,0,2.75,10.77,18.43,18.43,0,0,0,7.72,7.24A25.24,25.24,0,0,0,212,282.21,24.7,24.7,0,0,0,223.61,279.62Zm-1.69-64.28a17,17,0,0,0,6.68-6.94A21.65,21.65,0,0,0,231,198v-1.39a19.61,19.61,0,0,0-2.39-9.83,16.78,16.78,0,0,0-6.68-6.58,21.92,21.92,0,0,0-19.75,0,16.59,16.59,0,0,0-6.68,6.63,19.87,19.87,0,0,0-2.4,9.87v1.5a21.11,21.11,0,0,0,2.4,10.22,17,17,0,0,0,6.68,6.89,21.2,21.2,0,0,0,19.75,0Z"/><path class="cls-1" d="M365.14,226.86v17.75a1.79,1.79,0,0,1-1.8,1.79H284.55a1.79,1.79,0,0,1-1.79-1.79V226.86a1.79,1.79,0,0,1,1.79-1.8h78.79A1.79,1.79,0,0,1,365.14,226.86Zm-31.82,49.36H314.58a1.79,1.79,0,0,1-1.8-1.79V197a1.79,1.79,0,0,1,1.8-1.8h18.74a1.79,1.79,0,0,1,1.8,1.8v77.39A1.79,1.79,0,0,1,333.32,276.22Z"/></g></g></svg>