<svg xmlns="http://www.w3.org/2000/svg">
  <defs>
    <symbol id="modal-close" viewBox="0 0 16 16">
      <path d="M4.646 4.646a.5.5 0 0 1 .708 0L8 7.293l2.646-2.647a.5.5 0 0 1 .708.708L8.707 8l2.647 2.646a.5.5 0 0 1-.708.708L8 8.707l-2.646 2.647a.5.5 0 0 1-.708-.708L7.293 8 4.646 5.354a.5.5 0 0 1 0-.708"/>
    </symbol>
    <symbol id="chevron-down" viewBox="0 0 16 16">
      <path  d="M1.646 4.646a.5.5 0 0 1 .708 0L8 10.293l5.646-5.647a.5.5 0 0 1 .708.708l-6 6a.5.5 0 0 1-.708 0l-6-6a.5.5 0 0 1 0-.708z"/>
    </symbol>
    <symbol id="chevron-up" viewBox="0 0 16 16">
      <path  d="M7.646 4.646a.5.5 0 0 1 .708 0l6 6a.5.5 0 0 1-.708.708L8 5.707l-5.646 5.647a.5.5 0 0 1-.708-.708l6-6z"/>
    </symbol>

    <symbol id="id-1" viewBox="0 0 32 32">
      <path d="m30.773 22.098-8.443-8.505.937-4.615c.242.094.499.144.758.146h.006a2.159 2.159 0 1 0-2.008-1.435l-4.96.605L8.972.161a.534.534 0 0 0-.377-.16.532.532 0 0 0-.373.155L6.709 1.66a.534.534 0 0 0 0 .754l.814.826a14.943 14.943 0 0 0 2.519 17.663.513.513 0 0 0 .146.098c-.034.18-.051.364-.052.547v6.187h-6.4a2.67 2.67 0 0 0-2.667 2.667v1.067c0 .295.239.533.533.533h24.533a.533.533 0 0 0 .533-.533v-1.067a2.67 2.67 0 0 0-2.667-2.667h-6.4v-2.742a15.09 15.09 0 0 0 3.049.32 14.854 14.854 0 0 0 7.04-1.783l.818.823a.534.534 0 0 0 .377.16.532.532 0 0 0 .373-.155l1.513-1.504a.534.534 0 0 0 0-.754zM23.28 6.233a1.066 1.066 0 1 1 .752 1.822h-.003a1.067 1.067 0 0 1-.747-1.823h-.002zm-1.256 3.505-.598 2.946-1.175-1.182 1.774-1.763zm-.605-.902-1.92 1.909-1.485-1.493 3.405-.415zM24.004 28.8a1.6 1.6 0 0 1 1.6 1.6v.533H2.137V30.4a1.6 1.6 0 0 1 1.6-1.6h20.267zm-7.467-2.133v1.067h-5.333v-1.067h5.333zM11.204 25.6v-4.053c0-1.294 1.196-2.347 2.667-2.347s2.667 1.053 2.667 2.347V25.6h-5.333zm6.4-1.696v-2.357c0-1.882-1.675-3.413-3.733-3.413a3.8 3.8 0 0 0-3.281 1.786A13.87 13.87 0 0 1 8.311 4.033l18.602 18.708a13.818 13.818 0 0 1-9.309 1.163zm11.289-.684L7.836 2.039l.755-.752 7.935 7.98c.004 0 .006.007.01.01l13.115 13.191-.757.752z"/>
      <path d="M13.876 20.267h-.005a1.6 1.6 0 1 0-.004 3.2h.005a1.6 1.6 0 1 0 .004-3.2zm.373 1.978a.534.534 0 0 1-.752-.756.534.534 0 0 1 .373-.155.532.532 0 0 1 .373.911h.005z"/>
    </symbol>
    
    <symbol id="id-2" viewBox="0 0 32 32">
      <path d="M31.297 15.301C31.295 6.849 24.442-.002 15.989 0S.686 6.855.688 15.308a15.304 15.304 0 0 0 10.649 14.576.662.662 0 0 0 .529-.065.637.637 0 0 0 .283-.356l3.865-12.25a1.912 1.912 0 1 0-.84-3.635l-5.106-5.107a.637.637 0 0 0-.902.902l5.103 5.109a1.876 1.876 0 0 0 .536 2.309l-3.683 11.673C3.844 25.783.118 17.71 2.799 10.432S13.553-.572 20.831 2.109s11.004 10.754 8.323 18.032a14.042 14.042 0 0 1-7.462 7.973l-.398-1.874a.638.638 0 0 0-1.048-.344l-3.837 3.426a.637.637 0 0 0 .231 1.084l4.899 1.563a.638.638 0 0 0 .819-.74l-.391-1.839a15.255 15.255 0 0 0 9.329-14.089zm-15.305-.637a.638.638 0 1 1 0 1.277.638.638 0 0 1 0-1.277zm2.101 14.864 2.184-1.948.603 2.84-2.787-.892z"/>
      <path d="M15.354 3.185V4.46a.638.638 0 1 0 1.276 0V3.185a.638.638 0 0 0-1.276 0zM3.876 14.664a.638.638 0 0 0 0 1.276h1.275a.638.638 0 1 0 0-1.276H3.876zM28.108 15.939a.638.638 0 1 0 0-1.276h-1.275a.638.638 0 0 0 0 1.276h1.275z"/>
    </symbol>
    <symbol id="id-3" viewBox="0 0 32 32">
      <path d="M14.926 14.965h1.066v4.798h-1.066v-4.797zM19.19 17.097h1.066v2.665H19.19v-2.665zM10.661 18.696h1.066v1.066h-1.066v-1.066zM7.463 18.163h1.066v1.599H7.463v-1.599z"/>
      <path d="M1.599 28.291h25.587a1.6 1.6 0 0 0 1.599-1.599V24.56a1.6 1.6 0 0 0-1.599-1.599h-.533V9.668L29.681 6.8a1.608 1.608 0 1 0-.746-.763L26.654 8.2V6.97a1.6 1.6 0 0 0-1.599-1.599H3.733A1.6 1.6 0 0 0 2.134 6.97v15.992h-.533a1.6 1.6 0 0 0-1.599 1.599v2.132a1.6 1.6 0 0 0 1.599 1.599zM30.384 4.837a.533.533 0 1 1 0 1.067.533.533 0 0 1 0-1.067zM3.198 6.969c0-.294.239-.533.533-.533h21.322c.294 0 .533.239.533.533v2.239l-1.066 1.013V8.035a.533.533 0 0 0-.533-.533H4.797a.533.533 0 0 0-.533.533v13.326c0 .294.239.533.533.533h19.19a.533.533 0 0 0 .533-.533v-9.674l1.066-1.01v12.284H3.198V6.969zm4.798 6.93a1.598 1.598 0 1 0 1.107 2.749l1.853.93a.532.532 0 0 0 .636-.123l3.939-4.431 3.872 2.901a.533.533 0 0 0 .686-.039l3.365-3.188v8.131H5.33V8.569h18.124v2.66l-3.771 3.572-3.904-2.927a.533.533 0 0 0-.718.072l-3.993 4.493-1.493-.746c.011-.064.018-.129.02-.193a1.6 1.6 0 0 0-1.599-1.599zm.533 1.599a.533.533 0 1 1-1.067 0 .533.533 0 0 1 1.067 0zm3.198 8.529h5.331v.533a.533.533 0 0 1-.533.533h-4.264a.533.533 0 0 1-.533-.533v-.533zm-10.661.533c0-.294.239-.533.533-.533h9.062v.533a1.6 1.6 0 0 0 1.599 1.599h4.264a1.6 1.6 0 0 0 1.599-1.599v-.533h9.062c.294 0 .533.239.533.533v2.132a.533.533 0 0 1-.533.533H1.598a.533.533 0 0 1-.533-.533V24.56z"/>
    </symbol>
    <symbol id="id-4" viewBox="0 0 43 32">
      <path d="M38.667 0H4C1.794 0 0 1.794 0 4v24c0 2.206 1.794 4 4 4h34.667c2.206 0 4-1.794 4-4V4c0-2.206-1.794-4-4-4zm0 2.667c.181 0 .353.038.511.103L21.334 18.236 3.49 2.77a1.32 1.32 0 0 1 .511-.103h34.667zm0 26.666H4A1.334 1.334 0 0 1 2.667 28V5.587L20.46 21.008a1.335 1.335 0 0 0 1.748 0L40.001 5.587V28c0 .736-.598 1.333-1.333 1.333z"/>
    </symbol>
    
    
    <symbol id="id-5" viewBox="0 0 20 32">
      <path d="M17 0H3C1.346 0 0 1.346 0 3v26c0 1.654 1.346 3 3 3h14c1.654 0 3-1.346 3-3V3c0-1.654-1.346-3-3-3zM3 2h14a1 1 0 0 1 1 1v21H2V3a1 1 0 0 1 1-1zm14 28H3a1 1 0 0 1-1-1v-3h16v3a1 1 0 0 1-1 1z"/>
      <path d="M4.707 27.478c.391.365.391.956 0 1.321s-1.024.365-1.414 0c-.391-.365-.391-.956 0-1.321s1.024-.365 1.414 0z"/>
    </symbol>

    <symbol id="id-6" viewBox="0 0 16 16">
      <path d="M0 2a1 1 0 0 1 1-1h14a1 1 0 0 1 1 1v2a1 1 0 0 1-1 1v7.5a2.5 2.5 0 0 1-2.5 2.5h-9A2.5 2.5 0 0 1 1 12.5V5a1 1 0 0 1-1-1zm2 3v7.5A1.5 1.5 0 0 0 3.5 14h9a1.5 1.5 0 0 0 1.5-1.5V5zm13-3H1v2h14zM5 7.5a.5.5 0 0 1 .5-.5h5a.5.5 0 0 1 0 1h-5a.5.5 0 0 1-.5-.5"/>
    </symbol>
    
    <symbol id="id-7" viewBox="0 0 16 16">
      <path d="M4 9.5a.5.5 0 0 1 .5-.5h7a.5.5 0 0 1 .5.5v4a.5.5 0 0 1-.5.5h-7a.5.5 0 0 1-.5-.5zm1 .5v3h6v-3h-1v.5a.5.5 0 0 1-1 0V10z"/>
      <path d="M8 0a2 2 0 0 0-2 2H3.5a2 2 0 0 0-2 2v1c0 .52.198.993.523 1.349A.5.5 0 0 0 2 6.5V14a2 2 0 0 0 2 2h8a2 2 0 0 0 2-2V6.5a.5.5 0 0 0-.023-.151c.325-.356.523-.83.523-1.349V4a2 2 0 0 0-2-2H10a2 2 0 0 0-2-2m0 1a1 1 0 0 0-1 1h2a1 1 0 0 0-1-1M3 14V6.937c.16.041.327.063.5.063h4v.5a.5.5 0 0 0 1 0V7h4c.173 0 .34-.022.5-.063V14a1 1 0 0 1-1 1H4a1 1 0 0 1-1-1m9.5-11a1 1 0 0 1 1 1v1a1 1 0 0 1-1 1h-9a1 1 0 0 1-1-1V4a1 1 0 0 1 1-1z"/>
    </symbol>

    <symbol id="id-8" viewBox="0 0 16 16">
      <path d="M11 2a1 1 0 0 1 1-1h2a1 1 0 0 1 1 1v12h.5a.5.5 0 0 1 0 1H.5a.5.5 0 0 1 0-1H1v-3a1 1 0 0 1 1-1h2a1 1 0 0 1 1 1v3h1V7a1 1 0 0 1 1-1h2a1 1 0 0 1 1 1v7h1zm1 12h2V2h-2zm-3 0V7H7v7zm-5 0v-3H2v3z"/>
    </symbol>

    <symbol id="id-9" viewBox="0 0 16 16">
      <path d="M8 16a2 2 0 0 0 2-2H6a2 2 0 0 0 2 2M8 1.918l-.797.161A4.002 4.002 0 0 0 4 6c0 .628-.134 2.197-.459 3.742-.16.767-.376 1.566-.663 2.258h10.244c-.287-.692-.502-1.49-.663-2.258C12.134 8.197 12 6.628 12 6a4.002 4.002 0 0 0-3.203-3.92L8 1.917zM14.22 12c.223.447.481.801.78 1H1c.299-.199.557-.553.78-1C2.68 10.2 3 6.88 3 6c0-2.42 1.72-4.44 4.005-4.901a1 1 0 1 1 1.99 0A5.002 5.002 0 0 1 13 6c0 .88.32 4.2 1.22 6"/>
    </symbol>

    <symbol id="id-10" viewBox="0 0 16 16">
      <path d="M8.186 1.113a.5.5 0 0 0-.372 0L1.846 3.5l2.404.961L10.404 2zm3.564 1.426L5.596 5 8 5.961 14.154 3.5zm3.25 1.7-6.5 2.6v7.922l6.5-2.6V4.24zM7.5 14.762V6.838L1 4.239v7.923l6.5 2.6zM7.443.184a1.5 1.5 0 0 1 1.114 0l7.129 2.852A.5.5 0 0 1 16 3.5v8.662a1 1 0 0 1-.629.928l-7.185 2.874a.5.5 0 0 1-.372 0L.63 13.09a1 1 0 0 1-.63-.928V3.5a.5.5 0 0 1 .314-.464L7.443.184z"/>
    </symbol>

    <symbol id="id-11" viewBox="0 0 16 16">
      <path d="M8 11a3 3 0 1 1 0-6 3 3 0 0 1 0 6m0 1a4 4 0 1 0 0-8 4 4 0 0 0 0 8M8 0a.5.5 0 0 1 .5.5v2a.5.5 0 0 1-1 0v-2A.5.5 0 0 1 8 0m0 13a.5.5 0 0 1 .5.5v2a.5.5 0 0 1-1 0v-2A.5.5 0 0 1 8 13m8-5a.5.5 0 0 1-.5.5h-2a.5.5 0 0 1 0-1h2a.5.5 0 0 1 .5.5M3 8a.5.5 0 0 1-.5.5h-2a.5.5 0 0 1 0-1h2A.5.5 0 0 1 3 8m10.657-5.657a.5.5 0 0 1 0 .707l-1.414 1.415a.5.5 0 1 1-.707-.708l1.414-1.414a.5.5 0 0 1 .707 0m-9.193 9.193a.5.5 0 0 1 0 .707L3.05 13.657a.5.5 0 0 1-.707-.707l1.414-1.414a.5.5 0 0 1 .707 0zm9.193 2.121a.5.5 0 0 1-.707 0l-1.414-1.414a.5.5 0 0 1 .707-.707l1.414 1.414a.5.5 0 0 1 0 .707M4.464 4.465a.5.5 0 0 1-.707 0L2.343 3.05a.5.5 0 1 1 .707-.707l1.414 1.414a.5.5 0 0 1 0 .708z"/>
    </symbol>

    <symbol id="id-12" viewBox="0 0 16 16">
      <path d="m7.646 9.354-3.792 3.792a.5.5 0 0 0 .353.854h7.586a.5.5 0 0 0 .354-.854L8.354 9.354a.5.5 0 0 0-.708 0z"/>
      <path d="M11.414 11H14.5a.5.5 0 0 0 .5-.5v-7a.5.5 0 0 0-.5-.5h-13a.5.5 0 0 0-.5.5v7a.5.5 0 0 0 .5.5h3.086l-1 1H1.5A1.5 1.5 0 0 1 0 10.5v-7A1.5 1.5 0 0 1 1.5 2h13A1.5 1.5 0 0 1 16 3.5v7a1.5 1.5 0 0 1-1.5 1.5h-2.086z"/>
    </symbol>

    <symbol id="id-13" viewBox="0 0 16 16">
      <path fill-rule="evenodd" d="M8 7a.5.5 0 0 1 .5.5V9H10a.5.5 0 0 1 0 1H8.5v1.5a.5.5 0 0 1-1 0V10H6a.5.5 0 0 1 0-1h1.5V7.5A.5.5 0 0 1 8 7"/>
      <path d="M4 1.5H3a2 2 0 0 0-2 2V14a2 2 0 0 0 2 2h10a2 2 0 0 0 2-2V3.5a2 2 0 0 0-2-2h-1v1h1a1 1 0 0 1 1 1V14a1 1 0 0 1-1 1H3a1 1 0 0 1-1-1V3.5a1 1 0 0 1 1-1h1z"/>
      <path d="M9.5 1a.5.5 0 0 1 .5.5v1a.5.5 0 0 1-.5.5h-3a.5.5 0 0 1-.5-.5v-1a.5.5 0 0 1 .5-.5zm-3-1A1.5 1.5 0 0 0 5 1.5v1A1.5 1.5 0 0 0 6.5 4h3A1.5 1.5 0 0 0 11 2.5v-1A1.5 1.5 0 0 0 9.5 0z"/>
    </symbol>

    <symbol id="id-14" viewBox="0 0 16 16">
      <path d="M9.5 0a.5.5 0 0 1 .5.5.5.5 0 0 0 .5.5.5.5 0 0 1 .5.5V2a.5.5 0 0 1-.5.5h-5A.5.5 0 0 1 5 2v-.5a.5.5 0 0 1 .5-.5.5.5 0 0 0 .5-.5.5.5 0 0 1 .5-.5z"/>
      <path d="M3 2.5a.5.5 0 0 1 .5-.5H4a.5.5 0 0 0 0-1h-.5A1.5 1.5 0 0 0 2 2.5v12A1.5 1.5 0 0 0 3.5 16h9a1.5 1.5 0 0 0 1.5-1.5v-12A1.5 1.5 0 0 0 12.5 1H12a.5.5 0 0 0 0 1h.5a.5.5 0 0 1 .5.5v12a.5.5 0 0 1-.5.5h-9a.5.5 0 0 1-.5-.5z"/>
      <path d="M10 7a1 1 0 1 1 2 0v5a1 1 0 1 1-2 0zm-6 4a1 1 0 1 1 2 0v1a1 1 0 1 1-2 0zm4-3a1 1 0 0 0-1 1v3a1 1 0 1 0 2 0V9a1 1 0 0 0-1-1"/>
    </symbol>

    <symbol id="id-15" viewBox="0 0 16 16">
      <path fill-rule="evenodd" d="M7.646 10.854a.5.5 0 0 0 .708 0l2-2a.5.5 0 0 0-.708-.708L8.5 9.293V5.5a.5.5 0 0 0-1 0v3.793L6.354 8.146a.5.5 0 1 0-.708.708l2 2z"/>
      <path d="M4.406 3.342A5.53 5.53 0 0 1 8 2c2.69 0 4.923 2 5.166 4.579C14.758 6.804 16 8.137 16 9.773 16 11.569 14.502 13 12.687 13H3.781C1.708 13 0 11.366 0 9.318c0-1.763 1.266-3.223 2.942-3.593.143-.863.698-1.723 1.464-2.383zm.653.757c-.757.653-1.153 1.44-1.153 2.056v.448l-.445.049C2.064 6.805 1 7.952 1 9.318 1 10.785 2.23 12 3.781 12h8.906C13.98 12 15 10.988 15 9.773c0-1.216-1.02-2.228-2.313-2.228h-.5v-.5C12.188 4.825 10.328 3 8 3a4.53 4.53 0 0 0-2.941 1.1z"/>
    </symbol>


    <symbol id="form-mark" viewBox="0 0 16 15">
      <path d="m3.957 7.752-.069-.066-.069.065-.888.842-.076.072.076.073 3.496 3.334.069.066.069-.066 7.504-7.158.076-.073-.076-.072-.882-.841-.069-.066-.069.066-6.553 6.246-2.539-2.422Z" fill="#fff" stroke="#fff" stroke-width=".2"/>
    </symbol>

    <symbol id="form-name" viewBox="0 0 18 18">
      <path d="M9 9a3 3 0 1 0 0-6 3 3 0 1 0 0 6Zm0 1.5c-2.003 0-6 1.005-6 3v.75c0 .412.337.75.75.75h10.5c.412 0 .75-.338.75-.75v-.75c0-1.995-3.998-3-6-3Z" />
    </symbol>

    <symbol id="arrow-right-1" viewBox="0 0 16 16">>
      <path d="M1 8a.5.5 0 0 1 .5-.5h11.793l-3.147-3.146a.5.5 0 0 1 .708-.708l4 4a.5.5 0 0 1 0 .708l-4 4a.5.5 0 0 1-.708-.708L13.293 8.5H1.5A.5.5 0 0 1 1 8"/>
    </symbol>

    <symbol id="arrow-right-2" viewBox="0 0 16 16">>
      <path fill-rule="evenodd" d="M1 8a.5.5 0 0 1 .5-.5h11.793l-3.147-3.146a.5.5 0 0 1 .708-.708l4 4a.5.5 0 0 1 0 .708l-4 4a.5.5 0 0 1-.708-.708L13.293 8.5H1.5A.5.5 0 0 1 1 8"/>
    </symbol>

    <symbol id="arrow-right-3" viewBox="0 0 16 16">>
      <path fill-rule="evenodd" d="M14 13.5a.5.5 0 0 1-.5.5h-6a.5.5 0 0 1 0-1h4.793L2.146 2.854a.5.5 0 1 1 .708-.708L13 12.293V7.5a.5.5 0 0 1 1 0z"/>
    </symbol>


    <symbol id="check2" viewBox="0 0 16 16">>
      <path d="M13.854 3.646a.5.5 0 0 1 0 .708l-7 7a.5.5 0 0 1-.708 0l-3.5-3.5a.5.5 0 1 1 .708-.708L6.5 10.293l6.646-6.647a.5.5 0 0 1 .708 0z"/>
    </symbol>

    <symbol id="icon-send" viewBox="0 0 24 24">
      <path d="M24 0 0 13.5l7.67 2.84L19.5 5.25l-8.998 12.14.007.002-.009-.002V24l4.301-5.018L20.251 21 24 0Z" fill="#fff"/>
    </symbol>

    <symbol id="close-menu-icon" viewBox="0 0 32 32">
      <path d="M23.733 10.304l-1.504-1.504-5.963 5.963-5.963-5.963-1.504 1.504 5.963 5.963-5.963 5.963 1.504 1.504 5.963-5.963 5.963 5.963 1.504-1.504-5.963-5.963 5.963-5.963z"></path>
    </symbol>

    <symbol id="open-menu-icon" viewBox="0 0 32 32">
      <path d="M6.4 11.733v-2.133h19.2v2.133h-19.2zM6.4 17.067h19.2v-2.133h-19.2v2.133zM6.4 22.4h19.2v-2.133h-19.2v2.133z"></path>
    </symbol>

    <symbol id="map-1" viewBox="0 0 16 16">
      <path d="M8 0a8 8 0 1 0 0 16A8 8 0 0 0 8 0M2.04 4.326c.325 1.329 2.532 2.54 3.717 3.19.48.263.793.434.743.484-.08.08-.162.158-.242.234-.416.396-.787.749-.758 1.266.035.634.618.824 1.214 1.017.577.188 1.168.38 1.286.983.082.417-.075.988-.22 1.52-.215.782-.406 1.48.22 1.48 1.5-.5 3.798-3.186 4-5 .138-1.243-2-2-3.5-2.5-.478-.16-.755.081-.99.284-.172.15-.322.279-.51.216-.445-.148-2.5-2-1.5-2.5.78-.39.952-.171 1.227.182.078.099.163.208.273.318.609.304.662-.132.723-.633.039-.322.081-.671.277-.867.434-.434 1.265-.791 2.028-1.12.712-.306 1.365-.587 1.579-.88A7 7 0 1 1 2.04 4.327Z"/>
    </symbol>

    <symbol id="map-2" viewBox="0 0 16 16">
      <path fill-rule="evenodd" d="M15.817.113A.5.5 0 0 1 16 .5v14a.5.5 0 0 1-.402.49l-5 1a.502.502 0 0 1-.196 0L5.5 15.01l-4.902.98A.5.5 0 0 1 0 15.5v-14a.5.5 0 0 1 .402-.49l5-1a.5.5 0 0 1 .196 0L10.5.99l4.902-.98a.5.5 0 0 1 .415.103M10 1.91l-4-.8v12.98l4 .8V1.91zm1 12.98 4-.8V1.11l-4 .8zm-6-.8V1.11l-4 .8v12.98z"/>
    </symbol>

    <symbol id="map-3" viewBox="0 0 16 16">
      <path fill-rule="evenodd" d="M8 1a3 3 0 1 0 0 6 3 3 0 0 0 0-6M4 4a4 4 0 1 1 4.5 3.969V13.5a.5.5 0 0 1-1 0V7.97A4 4 0 0 1 4 3.999zm2.493 8.574a.5.5 0 0 1-.411.575c-.712.118-1.28.295-1.655.493a1.319 1.319 0 0 0-.37.265.301.301 0 0 0-.057.09V14l.002.008a.147.147 0 0 0 .016.033.617.617 0 0 0 .145.15c.165.13.435.27.813.395.751.25 1.82.414 3.024.414s2.273-.163 3.024-.414c.378-.126.648-.265.813-.395a.619.619 0 0 0 .146-.15.148.148 0 0 0 .015-.033L12 14v-.004a.301.301 0 0 0-.057-.09 1.318 1.318 0 0 0-.37-.264c-.376-.198-.943-.375-1.655-.493a.5.5 0 1 1 .164-.986c.77.127 1.452.328 1.957.594C12.5 13 13 13.4 13 14c0 .426-.26.752-.544.977-.29.228-.68.413-1.116.558-.878.293-2.059.465-3.34.465-1.281 0-2.462-.172-3.34-.465-.436-.145-.826-.33-1.116-.558C3.26 14.752 3 14.426 3 14c0-.599.5-1 .961-1.243.505-.266 1.187-.467 1.957-.594a.5.5 0 0 1 .575.411"/>
    </symbol>

    <symbol id="map-4" viewBox="0 0 16 16">
      <path d="M12.166 8.94c-.524 1.062-1.234 2.12-1.96 3.07A31.493 31.493 0 0 1 8 14.58a31.481 31.481 0 0 1-2.206-2.57c-.726-.95-1.436-2.008-1.96-3.07C3.304 7.867 3 6.862 3 6a5 5 0 0 1 10 0c0 .862-.305 1.867-.834 2.94M8 16s6-5.686 6-10A6 6 0 0 0 2 6c0 4.314 6 10 6 10"/>
      <path d="M8 8a2 2 0 1 1 0-4 2 2 0 0 1 0 4m0 1a3 3 0 1 0 0-6 3 3 0 0 0 0 6"/>
    </symbol>

    <symbol id="map-5" viewBox="0 0 16 16">
      <path fill-rule="evenodd" d="M4 4a4 4 0 1 1 4.5 3.969V13.5a.5.5 0 0 1-1 0V7.97A4 4 0 0 1 4 3.999zm2.493 8.574a.5.5 0 0 1-.411.575c-.712.118-1.28.295-1.655.493a1.319 1.319 0 0 0-.37.265.301.301 0 0 0-.057.09V14l.002.008a.147.147 0 0 0 .016.033.617.617 0 0 0 .145.15c.165.13.435.27.813.395.751.25 1.82.414 3.024.414s2.273-.163 3.024-.414c.378-.126.648-.265.813-.395a.619.619 0 0 0 .146-.15.148.148 0 0 0 .015-.033L12 14v-.004a.301.301 0 0 0-.057-.09 1.318 1.318 0 0 0-.37-.264c-.376-.198-.943-.375-1.655-.493a.5.5 0 1 1 .164-.986c.77.127 1.452.328 1.957.594C12.5 13 13 13.4 13 14c0 .426-.26.752-.544.977-.29.228-.68.413-1.116.558-.878.293-2.059.465-3.34.465-1.281 0-2.462-.172-3.34-.465-.436-.145-.826-.33-1.116-.558C3.26 14.752 3 14.426 3 14c0-.599.5-1 .961-1.243.505-.266 1.187-.467 1.957-.594a.5.5 0 0 1 .575.411"/>
    </symbol>

    <symbol id="email-1" viewBox="0 0 16 16">
      <path d="M2 2a2 2 0 0 0-2 2v8.01A2 2 0 0 0 2 14h5.5a.5.5 0 0 0 0-1H2a1 1 0 0 1-.966-.741l5.64-3.471L8 9.583l7-4.2V8.5a.5.5 0 0 0 1 0V4a2 2 0 0 0-2-2zm3.708 6.208L1 11.105V5.383zM1 4.217V4a1 1 0 0 1 1-1h12a1 1 0 0 1 1 1v.217l-7 4.2z"/>
      <path d="M14.247 14.269c1.01 0 1.587-.857 1.587-2.025v-.21C15.834 10.43 14.64 9 12.52 9h-.035C10.42 9 9 10.36 9 12.432v.214C9 14.82 10.438 16 12.358 16h.044c.594 0 1.018-.074 1.237-.175v-.73c-.245.11-.673.18-1.18.18h-.044c-1.334 0-2.571-.788-2.571-2.655v-.157c0-1.657 1.058-2.724 2.64-2.724h.04c1.535 0 2.484 1.05 2.484 2.326v.118c0 .975-.324 1.39-.639 1.39-.232 0-.41-.148-.41-.42v-2.19h-.906v.569h-.03c-.084-.298-.368-.63-.954-.63-.778 0-1.259.555-1.259 1.4v.528c0 .892.49 1.434 1.26 1.434.471 0 .896-.227 1.014-.643h.043c.118.42.617.648 1.12.648Zm-2.453-1.588v-.227c0-.546.227-.791.573-.791.297 0 .572.192.572.708v.367c0 .573-.253.744-.564.744-.354 0-.581-.215-.581-.8Z"/>
    </symbol>

    <symbol id="email-2" viewBox="0 0 16 16">
      <path d="M2 2A2 2 0 0 0 .05 3.555L8 8.414l7.95-4.859A2 2 0 0 0 14 2zm-2 9.8V4.698l5.803 3.546L0 11.801Zm6.761-2.97-6.57 4.026A2 2 0 0 0 2 14h6.256A4.493 4.493 0 0 1 8 12.5a4.49 4.49 0 0 1 1.606-3.446l-.367-.225L8 9.586l-1.239-.757ZM16 9.671V4.697l-5.803 3.546.338.208A4.482 4.482 0 0 1 12.5 8c1.414 0 2.675.652 3.5 1.671"/>
      <path d="M15.834 12.244c0 1.168-.577 2.025-1.587 2.025-.503 0-1.002-.228-1.12-.648h-.043c-.118.416-.543.643-1.015.643-.77 0-1.259-.542-1.259-1.434v-.529c0-.844.481-1.4 1.26-1.4.585 0 .87.333.953.63h.03v-.568h.905v2.19c0 .272.18.42.411.42.315 0 .639-.415.639-1.39v-.118c0-1.277-.95-2.326-2.484-2.326h-.04c-1.582 0-2.64 1.067-2.64 2.724v.157c0 1.867 1.237 2.654 2.57 2.654h.045c.507 0 .935-.07 1.18-.18v.731c-.219.1-.643.175-1.237.175h-.044C10.438 16 9 14.82 9 12.646v-.214C9 10.36 10.421 9 12.485 9h.035c2.12 0 3.314 1.43 3.314 3.034zm-4.04.21v.227c0 .586.227.8.581.8.31 0 .564-.17.564-.743v-.367c0-.516-.275-.708-.572-.708-.346 0-.573.245-.573.791Z"/>
    </symbol>

    <symbol id="email-3" viewBox="0 0 16 16">
      <path d="M.05 3.555A2 2 0 0 1 2 2h12a2 2 0 0 1 1.95 1.555L8 8.414.05 3.555ZM0 4.697v7.104l5.803-3.558zM6.761 8.83l-6.57 4.027A2 2 0 0 0 2 14h12a2 2 0 0 0 1.808-1.144l-6.57-4.027L8 9.586l-1.239-.757Zm3.436-.586L16 11.801V4.697l-5.803 3.546Z"/>
    </symbol>

    <symbol id="email-4" viewBox="0 0 16 16">
      <path d="M8.47 1.318a1 1 0 0 0-.94 0l-6 3.2A1 1 0 0 0 1 5.4v.817l5.75 3.45L8 8.917l1.25.75L15 6.217V5.4a1 1 0 0 0-.53-.882l-6-3.2ZM15 7.383l-4.778 2.867L15 13.117zm-.035 6.88L8 10.082l-6.965 4.18A1 1 0 0 0 2 15h12a1 1 0 0 0 .965-.738ZM1 13.116l4.778-2.867L1 7.383v5.734ZM7.059.435a2 2 0 0 1 1.882 0l6 3.2A2 2 0 0 1 16 5.4V14a2 2 0 0 1-2 2H2a2 2 0 0 1-2-2V5.4a2 2 0 0 1 1.059-1.765l6-3.2"/>
    </symbol>

    <symbol id="email-5" viewBox="0 0 16 16">
       <path d="M2 2a2 2 0 0 0-2 2v8.01A2 2 0 0 0 2 14h5.5a.5.5 0 0 0 0-1H2a1 1 0 0 1-.966-.741l5.64-3.471L8 9.583l7-4.2V8.5a.5.5 0 0 0 1 0V4a2 2 0 0 0-2-2zm3.708 6.208L1 11.105V5.383zM1 4.217V4a1 1 0 0 1 1-1h12a1 1 0 0 1 1 1v.217l-7 4.2z"/>
      <path d="M16 12.5a3.5 3.5 0 1 1-7 0 3.5 3.5 0 0 1 7 0m-3.5-2a.5.5 0 0 0-.5.5v1h-1a.5.5 0 0 0 0 1h1v1a.5.5 0 0 0 1 0v-1h1a.5.5 0 0 0 0-1h-1v-1a.5.5 0 0 0-.5-.5"/>
    </symbol>

    <symbol id="phone-1" viewBox="0 0 16 16">
      <path d="M10 3a1 1 0 0 1 1 1v8a1 1 0 0 1-1 1H6a1 1 0 0 1-1-1V4a1 1 0 0 1 1-1zM6 2a2 2 0 0 0-2 2v8a2 2 0 0 0 2 2h4a2 2 0 0 0 2-2V4a2 2 0 0 0-2-2z"/>
      <path d="M8 12a1 1 0 1 0 0-2 1 1 0 0 0 0 2M1.599 4.058a.5.5 0 0 1 .208.676A6.967 6.967 0 0 0 1 8c0 1.18.292 2.292.807 3.266a.5.5 0 0 1-.884.468A7.968 7.968 0 0 1 0 8c0-1.347.334-2.619.923-3.734a.5.5 0 0 1 .676-.208m12.802 0a.5.5 0 0 1 .676.208A7.967 7.967 0 0 1 16 8a7.967 7.967 0 0 1-.923 3.734.5.5 0 0 1-.884-.468A6.967 6.967 0 0 0 15 8c0-1.18-.292-2.292-.807-3.266a.5.5 0 0 1 .208-.676M3.057 5.534a.5.5 0 0 1 .284.648A4.986 4.986 0 0 0 3 8c0 .642.12 1.255.34 1.818a.5.5 0 1 1-.93.364A5.986 5.986 0 0 1 2 8c0-.769.145-1.505.41-2.182a.5.5 0 0 1 .647-.284m9.886 0a.5.5 0 0 1 .648.284C13.855 6.495 14 7.231 14 8c0 .769-.145 1.505-.41 2.182a.5.5 0 0 1-.93-.364C12.88 9.255 13 8.642 13 8c0-.642-.12-1.255-.34-1.818a.5.5 0 0 1 .283-.648z"/>
    </symbol>

    <symbol id="phone-2" viewBox="0 0 16 16">
      <path fill-rule="evenodd" d="M11 1H5a1 1 0 0 0-1 1v6a.5.5 0 0 1-1 0V2a2 2 0 0 1 2-2h6a2 2 0 0 1 2 2v6a.5.5 0 0 1-1 0V2a1 1 0 0 0-1-1m1 13a1 1 0 0 1-1 1H5a1 1 0 0 1-1-1v-2a.5.5 0 0 0-1 0v2a2 2 0 0 0 2 2h6a2 2 0 0 0 2-2v-2a.5.5 0 0 0-1 0zM1.713 7.954a.5.5 0 1 0-.419-.908c-.347.16-.654.348-.882.57C.184 7.842 0 8.139 0 8.5c0 .546.408.94.823 1.201.44.278 1.043.51 1.745.696C3.978 10.773 5.898 11 8 11c.099 0 .197 0 .294-.002l-1.148 1.148a.5.5 0 0 0 .708.708l2-2a.5.5 0 0 0 0-.708l-2-2a.5.5 0 1 0-.708.708l1.145 1.144L8 10c-2.04 0-3.87-.221-5.174-.569-.656-.175-1.151-.374-1.47-.575C1.012 8.639 1 8.506 1 8.5c0-.003 0-.059.112-.17.115-.112.31-.242.6-.376Zm12.993-.908a.5.5 0 0 0-.419.908c.292.134.486.264.6.377.113.11.113.166.113.169 0 .003 0 .065-.13.187-.132.122-.352.26-.677.4-.645.28-1.596.523-2.763.687a.5.5 0 0 0 .14.99c1.212-.17 2.26-.43 3.02-.758.38-.164.713-.357.96-.587.246-.229.45-.537.45-.919 0-.362-.184-.66-.412-.883-.228-.223-.535-.411-.882-.571ZM7.5 2a.5.5 0 0 0 0 1h1a.5.5 0 0 0 0-1z"/>
    </symbol>

    <symbol id="phone-3" viewBox="0 0 16 16">
      <path d="M15.854.146a.5.5 0 0 1 0 .708L11.707 5H14.5a.5.5 0 0 1 0 1h-4a.5.5 0 0 1-.5-.5v-4a.5.5 0 0 1 1 0v2.793L15.146.146a.5.5 0 0 1 .708 0zm-12.2 1.182a.678.678 0 0 0-1.015-.063L1.605 2.3c-.483.484-.661 1.169-.45 1.77a17.568 17.568 0 0 0 4.168 6.608 17.569 17.569 0 0 0 6.608 4.168c.601.211 1.286.033 1.77-.45l1.034-1.034a.678.678 0 0 0-.063-1.015l-2.307-1.794a.678.678 0 0 0-.58-.122l-2.19.547a1.745 1.745 0 0 1-1.657-.459L5.482 8.062a1.745 1.745 0 0 1-.46-1.657l.548-2.19a.678.678 0 0 0-.122-.58L3.654 1.328zM1.884.511a1.745 1.745 0 0 1 2.612.163L6.29 2.98c.329.423.445.974.315 1.494l-.547 2.19a.678.678 0 0 0 .178.643l2.457 2.457a.678.678 0 0 0 .644.178l2.189-.547a1.745 1.745 0 0 1 1.494.315l2.306 1.794c.829.645.905 1.87.163 2.611l-1.034 1.034c-.74.74-1.846 1.065-2.877.702a18.634 18.634 0 0 1-7.01-4.42 18.634 18.634 0 0 1-4.42-7.009c-.362-1.03-.037-2.137.703-2.877L1.885.511z"/>
    </symbol>

    <symbol id="phone-4" viewBox="0 0 16 16">
      <path fill-rule="evenodd" d="M1.885.511a1.745 1.745 0 0 1 2.61.163L6.29 2.98c.329.423.445.974.315 1.494l-.547 2.19a.678.678 0 0 0 .178.643l2.457 2.457a.678.678 0 0 0 .644.178l2.189-.547a1.745 1.745 0 0 1 1.494.315l2.306 1.794c.829.645.905 1.87.163 2.611l-1.034 1.034c-.74.74-1.846 1.065-2.877.702a18.634 18.634 0 0 1-7.01-4.42 18.634 18.634 0 0 1-4.42-7.009c-.362-1.03-.037-2.137.703-2.877L1.885.511zM12.5 1a.5.5 0 0 1 .5.5V3h1.5a.5.5 0 0 1 0 1H13v1.5a.5.5 0 0 1-1 0V4h-1.5a.5.5 0 0 1 0-1H12V1.5a.5.5 0 0 1 .5-.5"/>
    </symbol>

    <symbol id="phone-5" viewBox="0 0 16 16">
      <path d="M11 1a1 1 0 0 1 1 1v12a1 1 0 0 1-1 1H5a1 1 0 0 1-1-1V2a1 1 0 0 1 1-1zM5 0a2 2 0 0 0-2 2v12a2 2 0 0 0 2 2h6a2 2 0 0 0 2-2V2a2 2 0 0 0-2-2z"/>
      <path d="M8 14a1 1 0 1 0 0-2 1 1 0 0 0 0 2"/>
    </symbol>

    <symbol id="search" viewBox="0 0 16 16">
      <path d="M11.742 10.344a6.5 6.5 0 1 0-1.397 1.398h-.001c.03.04.062.078.098.115l3.85 3.85a1 1 0 0 0 1.415-1.414l-3.85-3.85a1.007 1.007 0 0 0-.115-.1zM12 6.5a5.5 5.5 0 1 1-11 0 5.5 5.5 0 0 1 11 0"/>
    </symbol>

    <symbol id="whatsup" viewBox="0 0 16 16">
       <path d="M13.601 2.326A7.85 7.85 0 0 0 7.994 0C3.627 0 .068 3.558.064 7.926c0 1.399.366 2.76 1.057 3.965L0 16l4.204-1.102a7.9 7.9 0 0 0 3.79.965h.004c4.368 0 7.926-3.558 7.93-7.93A7.9 7.9 0 0 0 13.6 2.326zM7.994 14.521a6.6 6.6 0 0 1-3.356-.92l-.24-.144-2.494.654.666-2.433-.156-.251a6.56 6.56 0 0 1-1.007-3.505c0-3.626 2.957-6.584 6.591-6.584a6.56 6.56 0 0 1 4.66 1.931 6.56 6.56 0 0 1 1.928 4.66c-.004 3.639-2.961 6.592-6.592 6.592m3.615-4.934c-.197-.099-1.17-.578-1.353-.646-.182-.065-.315-.099-.445.099-.133.197-.513.646-.627.775-.114.133-.232.148-.43.05-.197-.1-.836-.308-1.592-.985-.59-.525-.985-1.175-1.103-1.372-.114-.198-.011-.304.088-.403.087-.088.197-.232.296-.346.1-.114.133-.198.198-.33.065-.134.034-.248-.015-.347-.05-.099-.445-1.076-.612-1.47-.16-.389-.323-.335-.445-.34-.114-.007-.247-.007-.38-.007a.73.73 0 0 0-.529.247c-.182.198-.691.677-.691 1.654s.71 1.916.81 2.049c.098.133 1.394 2.132 3.383 2.992.47.205.84.326 1.129.418.475.152.904.129 1.246.08.38-.058 1.171-.48 1.338-.943.164-.464.164-.86.114-.943-.049-.084-.182-.133-.38-.232"/>
    </symbol>
  </defs>
</svg>
